<svg width="42" height="42" viewBox="0 0 42 42" fill="none" xmlns="http://www.w3.org/2000/svg">
<g clip-path="url(#clip0_935_10)">
<path d="M41.0883 19.1161C41.9151 18.3105 42.2069 17.128 41.8503 16.0288C41.4929 14.9296 40.5619 14.1449 39.4181 13.9784L29.2486 12.5008C28.8155 12.4377 28.4412 12.166 28.2478 11.7733L23.7013 2.55919C23.1908 1.52391 22.1547 0.880539 21 0.880539C19.8461 0.880539 18.81 1.52391 18.2995 2.55919L13.7522 11.7741C13.5587 12.1669 13.1837 12.4385 12.7505 12.5016L2.58105 13.9793C1.43812 14.1449 0.506283 14.9304 0.148854 16.0296C-0.207734 17.1288 0.084096 18.3113 0.910808 19.117L8.2688 26.2891C8.58249 26.5952 8.72631 27.0359 8.6523 27.4665L6.91646 37.594C6.76255 38.4854 6.99635 39.3525 7.57328 40.0362C8.4698 41.1018 10.0349 41.4264 11.2863 40.7688L20.381 35.9868C20.7611 35.7875 21.2397 35.7892 21.619 35.9868L30.7145 40.7688C31.1569 41.0017 31.6287 41.1195 32.1156 41.1195C33.0046 41.1195 33.8473 40.7242 34.4267 40.0362C35.0045 39.3525 35.2374 38.4837 35.0835 37.594L33.3469 27.4665C33.2728 27.0351 33.4167 26.5952 33.7304 26.2891L41.0883 19.1161Z" fill="#462F4C"/>
</g>
<defs>
<clipPath id="clip0_935_10">
<rect width="42" height="42" fill="white"/>
</clipPath>
</defs>
</svg>
